# xmcd
#
# Track frame offsets:
#	150
#	5864
#	13348
#	19959
#	30793
#	40456
#	47764
#	61335
#	69099
#	81876
#	91130
#	99510
#	106230
#	116510
#
# Disc length: 1711 seconds
#
# Revision: 0
# Processed by: cddbd v1.5.2PL0 Copyright (c) Steve Scherf et al.
# Submitted via: EasyCDDAExtractor 10.5.1.1
#
DISCID=a906ad0e
DTITLE=Stringbean - A Salute To Uncle Dave Macon
DYEAR=2001
DGENRE=Country
TTITLE0=Ida Red
TTITLE1=Tennessee Farmer
TTITLE2=Pretty Little Widow
TTITLE3=John Henry
TTITLE4=There'll Be Moonshine In Them Old Kentucky Hills
TTITLE5=Hesitation Blues
TTITLE6=Take My Hand, Precious Lord
TTITLE7=How Many Biscuits Can You Eat
TTITLE8=Over The Mountain
TTITLE9=Bully Of The Town
TTITLE10=I'm The Man Who Rode A Mule Around The World
TTITLE11=Cripple Creek
TTITLE12=Free Little Bird
TTITLE13=You Can't Do Wrong And Get By
EXTD=
EXTT0=
EXTT1=
EXTT2=
EXTT3=
EXTT4=
EXTT5=
EXTT6=
EXTT7=
EXTT8=
EXTT9=
EXTT10=
EXTT11=
EXTT12=
EXTT13=
PLAYORDER=
